# xmcd CD database file
#
# Track frame offsets:
#	150
#	15032
#	27783
#	40965
#	54020
#	68099
#	80086
#	91123
#	106272
#	117913
#	133912
#	148384
#	160669
#	173210
#	186481
#	200410
#	215336
#	228956
#	239689
#	253764
#	267704
#	280841
#	293359
#	307563
#	323711
#	334957
#
# Disc length: 4619 seconds
#
# Revision: 0
# Processed by: cddbd v1.5.2PL0 Copyright (c) Steve Scherf et al.
# Submitted via: CDex 1.70beta2
#
DISCID=6f12091a
DTITLE=vários - Geronimo West Music
DYEAR=2009
DGENRE=Country
TTITLE0=Paga Pau
TTITLE1=Curtição
TTITLE2=Mistérios
TTITLE3=To de Cara
TTITLE4=Meu Amor
TTITLE5=Cê Ta Loco
TTITLE6=Creme do Verão
TTITLE7=Você Não Vale Nada
TTITLE8=Descartável
TTITLE9=Não Tente Me Impedir
TTITLE10=De Peito Aberto Pra Quem Quer Amar
TTITLE11=A Flecha
TTITLE12=Larga Esse Whisky
TTITLE13=Chora Me Liga
TTITLE14=Vou Jogar a CHave Fora
TTITLE15=Dona do Meu Coração
TTITLE16=Revelação
TTITLE17=Robin Hood da Paixão
TTITLE18=Espelho
TTITLE19=Abstrata
TTITLE20=Não Vou Mais Chorar
TTITLE21=Só Sei Te Amar
TTITLE22=Meteóro
TTITLE23=Tarde Demais
TTITLE24=Coisas Que Eu Queria
TTITLE25=Tem Quem Me Ama
EXTD=YEAR: 2009
EXTT0=
EXTT1=
EXTT2=
EXTT3=
EXTT4=
EXTT5=
EXTT6=
EXTT7=
EXTT8=
EXTT9=
EXTT10=
EXTT11=
EXTT12=
EXTT13=
EXTT14=
EXTT15=
EXTT16=
EXTT17=
EXTT18=
EXTT19=
EXTT20=
EXTT21=
EXTT22=
EXTT23=
EXTT24=
EXTT25=
PLAYORDER=
